<svg xmlns="http://www.w3.org/2000/svg" xmlns:xlink="http://www.w3.org/1999/xlink" version="1.1" xml:space="preserve" width="400" height="400"><rect id="backgroundrect" width="100%" height="100%" x="0" y="0" fill="none" stroke="none"/>
















<g class="currentLayer"><title>Layer 1</title><g id="svg_1" class="">
	<path style="fill:#171715;" d="M303.5180977231328,243.85170444368399 l-11.7658228225708,-21.145249074578285 c-3.626546852111817,-6.5166857721805584 -5.555108978271484,-14.113307715177537 -5.555108978271484,-21.87550339603424 V112.0117622355131 c0,-35.45378552544117 2.2090802536010745,-110.98753623712062 -84.83760731506348,-110.98753623712062 c-70.81276351165772,0 -92.71017855072022,43.884454282283784 -99.48086608123779,71.02742666709423 c-2.688298721313477,10.775884834885597 3.6286719894409183,21.748234030365943 13.226854736328125,22.899836445927622 l27.44614860534668,3.292940383553505 c6.46041748046875,0.77473681819439 12.655192794799804,-3.212624764442444 15.457186363220215,-10.025860514879227 c5.320281303405761,-12.940699676156045 14.59438060760498,-32.212741388082506 43.21254244995117,-32.212741388082506 c11.08684144592285,0 26.676848892211915,5.452812725186348 26.676848892211915,21.396080931186674 c0,23.1333695538044 -0.026564216613769565,34.09706937491894 -0.026564216613769565,34.09706937491894 l0,0 c0.07437980651855468,4.827586521029472 -3.2705863494873046,8.788999980568887 -7.4231046905517575,8.788999980568887 h-26.826671073913573 c-20.241933059692382,0 -97.15915354919434,12.070819739937782 -97.15915354919434,101.51523568165302 s81.61908683013917,79.15289607131481 87.03818701934814,77.67632430458069 c10.110340843200683,-2.755443547964096 29.05275242614746,-10.800597333073616 46.85502783203125,-30.54094088566303 c2.9911307907104483,-3.316417256832123 7.763126663208008,-3.027281028032303 10.361107048034667,0.7104843229055409 l14.375491462707519,20.686832233190536 c5.588048606872559,8.041446910381318 15.867337867736817,8.88661434841156 22.37344580078125,1.8410811150074005 l23.630464530944824,-25.59349874842167 C306.53579273045705,260.690800709 307.55692121709035,251.10976516150512 303.5180977231328,243.85170444368399 zM185.52409779942676,238.8671935591606 c-27.32607834625244,0 -26.54721551513672,-28.729514768481256 -20.241933059692382,-42.368342518448834 c5.8993812255859375,-12.761534064292906 21.48620096588135,-35.383354905605316 63.33121754455566,-36.92417916762829 l0.36658618927002007,23.738825759410858 c0.2730801467895509,17.645959331154824 -6.707995979309081,34.59626183831691 -19.12092311859131,44.75186296868325 C202.16817336095022,234.35963388966596 193.77706861699266,238.8671935591606 185.52409779942676,238.8671935591606 z" id="svg_2"/>
	<g id="svg_3">
		<path style="fill:#FFAC35;" d="M5.425084570056658,320.53952882074395 c-4.155706047058105,-4.366698429822922 0.36658618927002007,-12.100474737763404 5.390410835266113,-9.222704323768616 c35.30809415435791,20.225944141983987 101.77920210266113,51.495903724193575 175.2547626876831,51.495903724193575 c75.08641468048097,0 137.9022864227295,-20.856112845778465 169.51795446777345,-33.72761752700806 c5.1407071990966795,-2.093148596525193 8.844821563720703,5.732063954710961 4.612610572814941,9.719425537347794 c-25.082995895385743,23.623912642836572 -78.94885177612305,60.171226213097576 -172.15631246185302,60.171226213097576 C95.18663507664846,398.9757624446062 34.8688622647588,351.4808121770529 5.425084570056658,320.53952882074395 z" id="svg_4"/>
		<path style="fill:#FFAC35;" d="M322.49769920933886,307.81012100409544 c9.794757949829101,-8.433140006661416 34.12970550537109,-22.971502690672875 70.49930575561524,-10.259393622756006 c3.341778450012207,1.1676655393838886 5.619925666809082,4.7633340257406225 5.6454273147583,8.821126228213311 c0.08819319915771494,13.874832107663154 -2.483222969055176,46.45084721910954 -25.8395447845459,73.52215335917474 c-1.6214797821044926,1.8793854871988298 -4.35228125,0.03459749746322635 -3.75192995452881,-2.5355023140907287 c3.988882766723633,-17.081278747558592 12.097344245910644,-53.720028561115264 9.524865509033203,-58.831808811306956 c-2.9496906127929687,-5.860568945288659 -39.80913501739502,-6.139820174813271 -54.74353759765626,-6.010079559326171 C321.652957121021,312.536386282554 320.7465860501592,309.31758339356463 322.49769920933886,307.81012100409544 z" id="svg_5"/>
	</g>
</g><g id="svg_6" class="">
</g><g id="svg_7" class="">
</g><g id="svg_8" class="">
</g><g id="svg_9" class="">
</g><g id="svg_10" class="">
</g><g id="svg_11" class="">
</g><g id="svg_12" class="">
</g><g id="svg_13" class="">
</g><g id="svg_14" class="">
</g><g id="svg_15" class="">
</g><g id="svg_16" class="">
</g><g id="svg_17" class="">
</g><g id="svg_18" class="">
</g><g id="svg_19" class="">
</g><g id="svg_20" class="">
</g></g></svg>