<svg xmlns="http://www.w3.org/2000/svg" xmlns:xlink="http://www.w3.org/1999/xlink" version="1.1" xml:space="preserve" width="425.276" height="425.276"><rect id="backgroundrect" width="100%" height="100%" x="0" y="0" fill="none" stroke="none"/>
















<g class="currentLayer"><title>Layer 1</title><g id="svg_1" class="selected">
	<path style="fill:#A6285F;" d="M212.6379995117188,-4.88281216348696e-7 C95.20099951171878,-4.88281216348696e-7 -4.88281216348696e-7,95.20099951171878 -4.88281216348696e-7,212.6379995117188 s95.201,212.638 212.638,212.638 s212.638,-95.201 212.638,-212.638 S330.0739995117188,-4.88281216348696e-7 212.6379995117188,-4.88281216348696e-7 zM384.5989995117188,197.3469995117188 c-22.571,-0.907 -65.28,-0.93 -113.812,7.556 c-4.384,-10.511 -8.862,-20.591 -13.362,-30.209 c2.811,-1.312 5.599,-2.646 8.334,-4.024 c33.334,-16.799 61.016,-38.531 82.59,-64.764 C369.1489995117188,132.2459995117188 381.67399951171876,163.7989995117188 384.5989995117188,197.3469995117188 zM319.9579995117188,77.39699951171879 c-20.137,25.651 -46.978,46.245 -80.323,61.637 c-3.7510000000000003,-7.068 -7.448,-13.791 -11.036,-20.102 c-18.354,-32.279 -35.867,-57.969 -48.968,-75.791 C190.3939995117188,41.068999511718786 201.43299951171878,39.999999511718784 212.6379995117188,39.999999511718784 C252.1039995117188,39.999999511718784 289.5409995117188,53.163999511718785 319.9579995117188,77.39699951171879 zM90.56399951171878,90.56399951171878 c14.403,-14.403 30.905,-25.942 48.814,-34.344 c12.573,16.328 33.28,45.133 54.976,83.412 c2.48,4.376 5.018,8.972 7.587,13.735 c-16.671,5.154 -34.572,9.303 -53.706,12.419 c-42.926,6.99 -81.612,6.7780000000000005 -103.339,5.784 C52.282999511718785,141.15899951171878 67.87099951171878,113.25799951171878 90.56399951171878,90.56399951171878 zM39.999999511718784,212.6379995117188 c0,-0.4090000000000001 0.012000000000000004,-0.8170000000000002 0.015000000000000006,-1.225 c7.377,0.3930000000000001 16.766000000000002,0.7150000000000002 27.711,0.7150000000000002 c23.124,0 53.197,-1.44 85.907,-6.694 c23.596,-3.791 45.835,-9.141 66.534,-15.992 c3.6590000000000007,7.752 7.307,15.831 10.902,24.214 c-26.514,7.132 -50.856,16.462 -72.688,27.894 c-35.425,18.55 -64.281,42.653 -86.006,71.784 C51.35199951171878,284.1819995117188 39.999999511718784,249.28499951171878 39.999999511718784,212.6379995117188 zM99.98899951171879,343.4729995117188 c30.377,-44.489 79.347,-75.482 145.902,-92.392 c13.348,36.702 24.769,77.743 31.354,121.738 c-20.261,8.169 -42.103,12.457 -64.607,12.457 C170.83799951171878,385.2759995117188 131.3049995117188,370.51999951171877 99.98899951171879,343.4729995117188 zM334.7109995117188,334.7109995117188 c-6.372,6.372 -13.159,12.175 -20.292,17.404 c-6.83,-39.082 -17.103,-75.734 -28.934,-109.105 c41.931,-6.5760000000000005 78.823,-6.412 98.035,-5.643 C378.2839995117188,274.09699951171876 361.41399951171877,308.0089995117188 334.7109995117188,334.7109995117188 z" id="svg_2"/>
</g><g id="svg_3">
</g><g id="svg_4">
</g><g id="svg_5">
</g><g id="svg_6">
</g><g id="svg_7">
</g><g id="svg_8">
</g><g id="svg_9">
</g><g id="svg_10">
</g><g id="svg_11">
</g><g id="svg_12">
</g><g id="svg_13">
</g><g id="svg_14">
</g><g id="svg_15">
</g><g id="svg_16">
</g><g id="svg_17">
</g></g></svg>