<svg xmlns="http://www.w3.org/2000/svg" xmlns:xlink="http://www.w3.org/1999/xlink" version="1.1" style="enable-background:new 0 0 396.918 396.918;" xml:space="preserve" width="396.918" height="396.918"><rect id="backgroundrect" width="100%" height="100%" x="0" y="0" fill="none" stroke="none"/>
















<g class="currentLayer"><title>Layer 1</title><path style="fill:#FF1A03;" d="M0,22.652v351.614c0,12.51,10.141,22.652,22.652,22.652h351.614c12.51,0,22.652-10.141,22.652-22.652  V22.652C396.917,10.141,386.776,0,374.266,0H22.652C10.141,0,0,10.141,0,22.652z M180.96,108.222h-62.29  c-6.256,0-11.344,5.088-11.344,11.344v59.92H55.353v-59.92c0-34.912,28.405-63.317,63.317-63.317h62.291L180.96,108.222  L180.96,108.222z M341.565,277.352c0,34.912-28.405,63.317-63.317,63.317h-62.291v-51.973h62.291  c6.256,0,11.344-5.088,11.344-11.344v-59.92h51.973L341.565,277.352L341.565,277.352z" id="svg_1"/><g id="svg_2">
</g><g id="svg_3">
</g><g id="svg_4">
</g><g id="svg_5">
</g><g id="svg_6">
</g><g id="svg_7">
</g><g id="svg_8">
</g><g id="svg_9">
</g><g id="svg_10">
</g><g id="svg_11">
</g><g id="svg_12">
</g><g id="svg_13">
</g><g id="svg_14">
</g><g id="svg_15">
</g><g id="svg_16">
</g></g></svg>